<svg width="422" height="32" viewBox="0 0 422 32" fill="none" xmlns="http://www.w3.org/2000/svg">
<path d="M68.3169 27.2748C65.2528 27.2748 62.7097 26.2485 60.6903 24.1986C58.6709 22.1487 57.6584 19.6019 57.6584 16.5582C57.6584 13.5144 58.6682 10.9676 60.6903 8.91771C62.7097 6.86514 65.2528 5.84155 68.3169 5.84155C70.1511 5.84155 71.851 6.26827 73.4112 7.12171C74.9714 7.97515 76.2014 9.13918 77.101 10.6111L73.0594 12.9661C72.6109 12.1613 71.9664 11.5374 71.1259 11.0972C70.288 10.6543 69.3508 10.4355 68.3142 10.4355C66.4989 10.4355 65.0488 10.9946 63.9665 12.1127C62.8843 13.2308 62.3418 14.7135 62.3418 16.5582C62.3418 18.4028 62.8843 19.8855 63.9665 21.0036C65.0488 22.1217 66.4989 22.6835 68.3142 22.6835C69.3481 22.6835 70.2907 22.4566 71.1393 22.0056C71.9879 21.5546 72.6271 20.9361 73.0567 20.1502L77.0983 22.5052C76.2202 23.9771 75.001 25.1412 73.438 25.9946C71.8805 26.848 70.1726 27.2748 68.3169 27.2748Z" fill="#201D1C"></path>
<path d="M83.835 5.36865H79.4443V26.864H83.835V5.36865Z" fill="#201D1C"></path>
<path d="M99.5841 25.0219C98.0803 26.5235 96.2462 27.2743 94.079 27.2743C91.9119 27.2743 90.0777 26.5235 88.5739 25.0219C87.07 23.5203 86.3181 21.681 86.3181 19.5015C86.3181 17.322 87.07 15.4828 88.5739 13.9812C90.0777 12.4796 91.9119 11.7288 94.079 11.7288C96.2462 11.7288 98.0803 12.4796 99.5841 13.9812C101.085 15.4828 101.837 17.322 101.837 19.5015C101.837 21.681 101.085 23.5203 99.5841 25.0219ZM91.6782 22.0051C92.3227 22.6533 93.123 22.9774 94.079 22.9774C95.035 22.9774 95.8353 22.6533 96.4798 22.0051C97.1243 21.357 97.4465 20.5224 97.4465 19.5015C97.4465 18.4806 97.1243 17.6461 96.4798 17.0006C95.8353 16.3525 95.035 16.0284 94.079 16.0284C93.123 16.0284 92.3227 16.3525 91.6782 17.0006C91.0337 17.6488 90.7115 18.4834 90.7115 19.5015C90.7115 20.5224 91.0337 21.357 91.6782 22.0051Z" fill="#201D1C"></path>
<path d="M113.783 12.1422H118.173V26.864H113.783V25.4812C112.905 26.6777 111.508 27.2772 109.596 27.2772C108.033 27.2772 106.731 26.7371 105.689 25.6595C104.644 24.5792 104.123 23.0884 104.123 21.1843V12.1422H108.514V20.5335C108.514 21.3977 108.753 22.0594 109.231 22.5212C109.709 22.983 110.319 23.2126 111.06 23.2126C111.898 23.2126 112.564 22.956 113.05 22.4483C113.538 21.9379 113.783 21.1816 113.783 20.1797V12.1422V12.1422Z" fill="#201D1C"></path>
<path d="M131.439 6.2522H135.83V26.8644H131.439V25.4816C130.406 26.678 128.95 27.2776 127.078 27.2776C125.145 27.2776 123.496 26.5268 122.132 25.0252C120.765 23.5235 120.083 21.6843 120.083 19.5048C120.083 17.3253 120.765 15.4861 122.132 13.9845C123.499 12.4828 125.147 11.732 127.078 11.732C128.953 11.732 130.406 12.3316 131.439 13.528V6.2522V6.2522ZM125.438 22.1245C126.082 22.7727 126.92 23.0968 127.956 23.0968C128.99 23.0968 129.831 22.7727 130.475 22.1245C131.12 21.4764 131.442 20.604 131.442 19.5048C131.442 18.4056 131.12 17.5333 130.475 16.8851C129.831 16.2369 128.99 15.9128 127.956 15.9128C126.923 15.9128 126.082 16.2369 125.438 16.8851C124.793 17.5333 124.471 18.4056 124.471 19.5048C124.473 20.6013 124.796 21.4764 125.438 22.1245Z" fill="#201D1C"></path>
<path d="M152.752 6.2522V8.84492H146.693V26.8644H143.997V8.84492H137.969V6.2522H152.752Z" fill="#201D1C"></path>
<path d="M162.324 12.1425H164.873V26.8644H162.324V24.3311C161.057 26.2729 159.212 27.2452 156.792 27.2452C154.743 27.2452 152.995 26.4944 151.55 24.9927C150.106 23.4911 149.383 21.66 149.383 19.5021C149.383 17.3442 150.106 15.5131 151.55 14.0115C152.995 12.5098 154.741 11.759 156.792 11.759C159.212 11.759 161.057 12.7313 162.324 14.6732V12.1425ZM157.115 24.774C158.597 24.774 159.838 24.2689 160.831 23.2589C161.828 22.2488 162.324 20.9956 162.324 19.5048C162.324 18.014 161.828 16.7608 160.831 15.7508C159.835 14.7407 158.597 14.2329 157.115 14.2329C155.651 14.2329 154.421 14.738 153.425 15.7508C152.429 16.7608 151.932 18.014 151.932 19.5048C151.932 20.9956 152.429 22.2488 153.425 23.2589C154.418 24.2689 155.648 24.774 157.115 24.774Z" fill="#201D1C"></path>
<path d="M181.445 26.864H178.459L174.347 21.3032L170.233 26.864H167.247L172.854 19.2857L167.569 12.1422H170.585L174.355 17.2547L178.139 12.1422H181.123L175.846 19.2749L181.445 26.864Z" fill="#201D1C"></path>
<path fill-rule="evenodd" clip-rule="evenodd" d="M18.9279 0C14.2453 0 10.1985 3.15405 8.93131 7.55355C3.80578 8.64871 0 13.2515 0 18.6508C0 24.9042 5.05202 30 11.2791 30H38.0399C43.04 30 47.093 25.907 47.093 20.8918C47.093 16.1741 43.5129 12.2764 38.9289 11.824C37.7606 7.8044 34.102 4.95702 29.7737 4.95702C29.1361 4.95702 28.5057 5.01996 27.888 5.14509C26.0407 2.00741 22.6482 0 18.9279 0ZM20.6347 12.318C18.9765 9.84891 16.375 8.06223 13.3488 7.4951C14.4197 5.46749 16.5427 4.11081 18.9279 4.11081C21.5821 4.11081 23.9746 5.8012 24.8747 8.32416L25.6114 10.3913L27.6184 9.51776C28.3019 9.21977 29.0285 9.06783 29.7787 9.06783C32.6202 9.06783 34.9514 11.2091 35.2038 14.0645L35.3888 16.1611L37.469 15.9267L37.4709 15.9265C37.679 15.9041 37.8707 15.8919 38.0424 15.8919C40.769 15.8919 43.0019 18.1306 43.0019 20.8918C42.9994 23.6529 40.7667 25.8892 38.0399 25.8892H11.2791C7.32529 25.8892 4.09612 22.6475 4.09612 18.6508C4.09612 14.8582 7.03871 11.6928 10.7766 11.4328L11.0642 11.4124H11.2791C13.7239 11.4124 15.8916 12.651 17.1938 14.5494L17.7173 15.3126L21.1933 13.1498L20.6347 12.318Z" fill="#201D1C"></path>
<g clip-path="url(#clip0_14595_1062)">
<path d="M250.85 5.71106C250.592 5.87918 250.32 6.14085 250.032 6.49704C249.641 6.9797 249.245 7.55088 248.844 8.21096C248.443 8.87182 248.088 9.54739 247.779 10.2392L240.251 26.8434L234.451 13.2581L227.879 26.8434L220.504 10.1767C220.216 9.50595 219.867 8.82456 219.455 8.13233C219.044 7.44048 218.663 6.88538 218.314 6.46605C218.026 6.10967 217.717 5.84199 217.388 5.66399C217.059 5.48619 216.596 5.31284 216 5.14511V4.83076H227.323V5.14511C226.87 5.33357 226.547 5.54894 226.351 5.7897C226.156 6.03103 226.058 6.351 226.058 6.74863C226.058 7.08429 226.151 7.47205 226.336 7.9123L231.149 19.1705L234.296 12.7238L232.476 8.38392C231.941 7.12632 231.437 6.25629 230.964 5.77362C230.799 5.60647 230.609 5.47534 230.393 5.38121C230.177 5.2865 229.874 5.20767 229.483 5.14511V4.83076H240.652V5.14511C239.542 5.33357 238.986 5.94193 238.986 6.96886C238.986 7.22045 239.042 7.56638 239.156 8.00701C239.268 8.44707 239.418 8.89816 239.603 9.35894L243.46 18.6987L244.231 17.0946C245.013 15.4391 245.615 13.9085 246.036 12.5036C246.458 11.0992 246.669 9.86175 246.669 8.79299C246.669 7.57722 246.411 6.64404 245.898 5.99423C245.712 5.76374 245.506 5.59078 245.28 5.47534C245.054 5.36049 244.714 5.25009 244.262 5.14511V4.83076H252.006V5.14511C251.492 5.35468 251.107 5.54371 250.85 5.71106Z" fill="#201D1C"></path>
<path d="M262.668 20.947C262.524 21.2929 262.38 21.6026 262.236 21.8748C262.092 22.1472 261.933 22.4093 261.758 22.6609C261.583 22.9124 261.382 23.1849 261.156 23.4786C260.436 24.3589 259.572 25.035 258.565 25.5069C257.557 25.9785 256.446 26.2142 255.232 26.2142C254.08 26.2142 253.006 26.0097 252.008 25.601C251.01 25.1919 250.146 24.626 249.416 23.9026C248.686 23.1797 248.116 22.3258 247.704 21.34C247.292 20.3551 247.087 19.2858 247.087 18.1322C247.087 16.9588 247.303 15.8579 247.735 14.8306C248.167 13.8037 248.763 12.9074 249.524 12.142C250.285 11.3767 251.175 10.774 252.193 10.3339C253.211 9.89328 254.307 9.67364 255.479 9.67364C256.508 9.67364 257.454 9.83052 258.318 10.1449C259.181 10.4596 259.942 10.9107 260.601 11.497C261.259 12.0846 261.799 12.7971 262.221 13.6355C262.642 14.4743 262.915 15.4074 263.039 16.4342H252.826C252.846 20.3551 254.564 22.315 257.978 22.315C259.274 22.315 260.374 21.9903 261.28 21.34C261.629 21.1096 261.907 20.8739 262.113 20.6322C262.318 20.3919 262.576 20.0299 262.884 19.5478L263.162 19.6732C262.977 20.1765 262.812 20.6011 262.668 20.947ZM257.577 15.135C257.577 14.881 257.572 14.6538 257.562 14.4521C257.551 14.2509 257.541 14.0652 257.531 13.896C257.521 13.7269 257.505 13.5365 257.485 13.324C257.402 12.1803 257.196 11.3484 256.868 10.8292C256.539 10.3109 256.066 10.0506 255.448 10.0506C254.585 10.0506 253.931 10.5648 253.489 11.5921C253.047 12.62 252.826 14.1087 252.826 16.0568H257.577V15.135Z" fill="#201D1C"></path>
<path d="M280.046 25.6639C279.265 26.0513 278.485 26.2454 277.705 26.2454C276.042 26.2454 275.015 25.2393 274.626 23.2266C274.256 23.751 273.948 24.1388 273.701 24.3906C273.455 24.6416 273.147 24.8934 272.778 25.1451C271.751 25.8576 270.52 26.2143 269.083 26.2143C267.79 26.2143 266.732 25.8994 265.911 25.2709C265.09 24.6416 264.68 23.8142 264.68 22.7863C264.68 21.4654 265.399 20.3863 266.839 19.5475C268.711 18.4782 271.303 17.4513 274.615 16.4655V14.8302C274.615 13.2793 274.542 12.2417 274.398 11.7172C274.295 11.3402 274.1 11.0414 273.812 10.8214C273.524 10.6008 273.185 10.4909 272.794 10.4909C272.506 10.4909 272.223 10.5432 271.945 10.6478C271.668 10.7534 271.426 10.8892 271.22 11.0569C270.953 11.2878 270.753 11.5913 270.619 11.9688C270.485 12.3463 270.367 12.8707 270.264 13.5414L270.141 14.4848C270.017 15.491 269.663 16.2826 269.076 16.859C268.49 17.4358 267.765 17.7237 266.901 17.7237C266.263 17.7237 265.744 17.5192 265.343 17.1107C264.942 16.7016 264.741 16.1723 264.741 15.522C264.741 13.9924 265.934 12.6714 268.32 11.5603C269.596 10.9523 270.917 10.4857 272.285 10.1605C273.653 9.83589 274.91 9.67339 276.056 9.67339C277.242 9.67339 278.174 9.95597 278.848 10.5225C279.298 10.8996 279.61 11.3453 279.784 11.8589C279.958 12.3726 280.045 13.0908 280.045 14.0126V21.2458C280.045 21.8537 280.055 22.2887 280.076 22.5508C280.096 22.8132 280.158 23.0381 280.261 23.2266C280.343 23.4367 280.487 23.5992 280.693 23.7143C280.898 23.8297 281.135 23.8872 281.402 23.8872C281.588 23.8872 281.768 23.8613 281.942 23.8085C282.117 23.7563 282.348 23.6465 282.636 23.4782L282.822 23.6988C281.752 24.6215 280.827 25.2759 280.046 25.6639ZM274.615 16.843C274.018 17.0531 273.576 17.2157 273.288 17.3302C273 17.4462 272.712 17.6191 272.424 17.8495C271.909 18.2063 271.539 18.6464 271.313 19.17C271.087 19.6945 270.974 20.3547 270.974 21.1511C270.974 22.0947 271.128 22.8179 271.437 23.3213C271.745 23.8241 272.187 24.0757 272.763 24.0757C273.339 24.0757 273.792 23.8665 274.121 23.4472C274.45 23.0277 274.615 22.4512 274.615 21.7172V16.843Z" fill="#201D1C"></path>
<path d="M282.718 25.8054V25.4281C283.252 25.3864 283.648 25.3186 283.906 25.2239C284.163 25.1302 284.384 24.9681 284.569 24.738C284.713 24.5294 284.816 24.2211 284.878 23.813C284.939 23.4055 284.97 22.7099 284.97 21.7273V8.83753C284.97 7.8968 284.929 7.20186 284.847 6.75231C284.764 6.30277 284.6 5.91055 284.353 5.57606C284.126 5.26267 283.864 5.03781 283.566 4.90203C283.268 4.76645 282.862 4.68762 282.348 4.66651L282.286 4.32155C282.697 4.23808 283.052 4.16564 283.351 4.1023C283.648 4.03974 283.941 3.97195 284.23 3.89835C284.518 3.82533 284.831 3.74669 285.169 3.66322C285.506 3.57974 285.911 3.47515 286.381 3.34945C286.872 3.22394 287.282 3.11412 287.608 3.01999C287.936 2.92605 288.237 2.8323 288.514 2.73817C288.789 2.64346 289.071 2.54972 289.357 2.45539C289.644 2.36165 289.991 2.25222 290.4 2.12632V21.7273C290.4 22.2085 290.405 22.616 290.416 22.9507C290.426 23.2852 290.447 23.5623 290.477 23.7814C290.508 24.001 290.55 24.1838 290.601 24.3305C290.652 24.4771 290.719 24.6133 290.802 24.738C290.966 24.9681 291.177 25.1302 291.434 25.2239C291.691 25.3186 292.098 25.3864 292.653 25.4281V25.8054H282.718Z" fill="#201D1C"></path>
<path d="M302.603 25.6786C301.77 26.0354 300.924 26.2144 300.063 26.2144C298.857 26.2144 297.844 25.878 297.026 25.206C296.515 24.7862 296.157 24.2607 295.952 23.63C295.748 23.0005 295.646 22.1071 295.646 20.9515V11.5287H291.851C292.283 11.3399 292.663 11.1621 292.992 10.994C293.321 10.8266 293.625 10.6589 293.902 10.4912C294.18 10.3234 294.458 10.1452 294.736 9.95619C295.013 9.76774 295.337 9.53725 295.707 9.26435C296.628 8.5727 297.456 7.87058 298.192 7.15743C298.499 6.86439 298.77 6.5971 299.005 6.35596C299.24 6.11501 299.465 5.86342 299.68 5.60097C299.895 5.33891 300.11 5.05613 300.325 4.75224C300.539 4.44815 300.79 4.08674 301.076 3.66683V10.0821H304.964L304.192 11.5287H301.076V20.6051C301.076 21.802 301.271 22.6583 301.662 23.1735C302.053 23.6881 302.711 23.9454 303.637 23.9454C303.925 23.9454 304.192 23.9246 304.439 23.8822C304.686 23.8402 305.005 23.7461 305.396 23.5985L305.581 23.8506C304.429 24.7121 303.436 25.3215 302.603 25.6786Z" fill="#201D1C"></path>
<path d="M316.503 25.8054V25.4281C317.079 25.3653 317.464 25.1871 317.66 24.8935C317.855 24.6001 317.953 24.0128 317.953 23.1326V14.8305C317.953 14.2645 317.927 13.8399 317.875 13.5571C317.824 13.2739 317.715 13.0175 317.549 12.7866C317.403 12.5774 317.207 12.4091 316.958 12.2834C316.709 12.1575 316.45 12.0949 316.181 12.0949C315.829 12.0949 315.461 12.1844 315.078 12.362C314.694 12.5402 314.264 12.839 313.788 13.2584V23.3209C313.788 23.5726 313.798 23.7829 313.818 23.95C313.839 24.118 313.86 24.2541 313.88 24.3591C313.9 24.4643 313.931 24.5689 313.973 24.6735C314.076 24.9043 314.22 25.0773 314.405 25.1924C314.59 25.3078 314.868 25.3864 315.238 25.4281V25.8054H305.889V25.4281C306.486 25.3864 306.928 25.3186 307.216 25.2239C307.504 25.1302 307.74 24.9681 307.926 24.738C308.09 24.5081 308.203 24.1947 308.265 23.7974C308.327 23.4002 308.357 22.7099 308.357 21.7273V8.83753C308.357 7.8968 308.316 7.20186 308.234 6.75231C308.152 6.30277 307.997 5.91055 307.771 5.57606C307.545 5.26267 307.282 5.03781 306.985 4.90203C306.686 4.76645 306.269 4.68762 305.735 4.66651L305.704 4.32155C306.136 4.23808 306.516 4.15983 306.846 4.08681C307.175 4.0134 307.488 3.94019 307.786 3.86717C308.085 3.79376 308.392 3.71493 308.71 3.63165C309.027 3.54817 309.39 3.45404 309.8 3.34945C310.229 3.22394 310.602 3.11935 310.919 3.03548C311.236 2.952 311.538 2.86388 311.824 2.76916C312.11 2.67503 312.407 2.58129 312.714 2.48696C313.02 2.39322 313.378 2.27255 313.788 2.12632V12.789C314.076 12.5383 314.322 12.3291 314.528 12.1618C314.733 11.995 314.919 11.8484 315.084 11.7225C315.248 11.5976 315.403 11.4827 315.546 11.3781C315.69 11.2739 315.855 11.1589 316.04 11.0332C316.76 10.5524 317.433 10.2019 318.061 9.98222C318.688 9.76355 319.331 9.65334 319.989 9.65334C321.121 9.65334 321.974 10.0091 322.55 10.7192C322.839 11.075 323.044 11.4982 323.167 11.9898C323.291 12.4808 323.353 13.166 323.353 14.0439V22.3545L323.384 23.1391C323.404 23.5985 323.419 23.9284 323.43 24.1269C323.44 24.3252 323.496 24.5081 323.599 24.6754C323.723 24.9053 323.902 25.0779 324.139 25.1927C324.375 25.3078 324.731 25.3864 325.204 25.4281V25.8054H316.503Z" fill="#201D1C"></path>
<path d="M339.227 22.7958C338.888 23.4995 338.414 24.1036 337.808 24.6078C337.201 25.1116 336.475 25.5055 335.632 25.7892C334.789 26.072 333.874 26.2144 332.886 26.2144C332.598 26.2144 332.316 26.2043 332.038 26.1851C331.761 26.1658 331.456 26.1267 331.128 26.0691C330.799 26.0106 330.439 25.9368 330.048 25.8467C329.657 25.7563 329.194 25.6275 328.659 25.4594C328.309 25.3548 328.027 25.2709 327.811 25.2078C327.595 25.1451 327.394 25.0823 327.209 25.0191C327.024 24.9566 326.844 24.8934 326.669 24.8307C326.495 24.7675 326.284 24.6841 326.037 24.5791L325.729 18.3213H326.037C326.531 19.4745 327.07 20.5173 327.657 21.4499C328.243 22.3831 328.86 23.1747 329.508 23.8241C330.156 24.4745 330.814 24.972 331.483 25.318C332.151 25.6639 332.814 25.8369 333.473 25.8369C334.152 25.8369 334.696 25.6271 335.108 25.2068C335.519 24.7869 335.725 24.2407 335.725 23.5683C335.725 22.8754 335.514 22.3085 335.092 21.8669C334.671 21.4259 333.915 21.0159 332.825 20.6379L331.313 20.1021C329.338 19.4094 327.929 18.6479 327.086 17.818C326.242 16.9886 325.821 15.9962 325.821 14.8402C325.821 14.1054 325.991 13.4226 326.33 12.7931C326.669 12.1631 327.132 11.6169 327.719 11.1545C328.305 10.6922 328.999 10.3298 329.801 10.0674C330.603 9.80473 331.478 9.67341 332.424 9.67341C333.246 9.67341 334.079 9.73655 334.923 9.86187C335.766 9.98757 336.763 10.2186 337.916 10.5541L338.225 15.7111H337.916C337.586 14.8934 337.195 14.1384 336.743 13.4467C336.29 12.7553 335.807 12.1578 335.293 11.6544C334.779 11.1512 334.254 10.7582 333.72 10.4755C333.184 10.1921 332.671 10.0509 332.177 10.0509C331.58 10.0509 331.071 10.2558 330.65 10.6653C330.228 11.0753 330.017 11.5739 330.017 12.1615C330.017 13.4222 330.994 14.3779 332.948 15.0292L335.046 15.7219C336.692 16.2685 337.885 16.9198 338.625 17.6757C339.366 18.432 339.736 19.3769 339.736 20.5112C339.736 21.3307 339.566 22.0922 339.227 22.7958Z" fill="#201D1C"></path>
<path d="M340.199 25.8054V25.4281C340.754 25.3864 341.16 25.3183 341.418 25.2239C341.675 25.1293 341.885 24.9671 342.05 24.7362C342.214 24.5057 342.328 24.1914 342.389 23.7928C342.451 23.3949 342.482 22.7031 342.482 21.7173V16.5599C342.482 16.099 342.471 15.6953 342.451 15.3493C342.43 15.0034 342.394 14.7046 342.343 14.4535C342.291 14.2018 342.23 13.9813 342.158 13.7928C342.086 13.6043 341.988 13.4261 341.865 13.2584C341.638 12.9648 341.376 12.7504 341.078 12.6136C340.779 12.4775 340.363 12.3884 339.828 12.3465L339.797 12.0318C340.209 11.9483 340.564 11.8695 340.862 11.7961C341.16 11.7225 341.453 11.6438 341.741 11.56C342.029 11.4765 342.343 11.3874 342.682 11.2927C343.022 11.1986 343.427 11.0783 343.901 10.9313C344.374 10.7849 344.775 10.6636 345.105 10.5699C345.433 10.4751 345.742 10.3808 346.03 10.2867C346.318 10.1924 346.606 10.093 346.894 9.98783C347.182 9.88324 347.521 9.75735 347.912 9.61034V21.7173C347.912 22.1999 347.917 22.6084 347.928 22.9435C347.938 23.2796 347.958 23.5571 347.989 23.7771C348.02 23.9973 348.066 24.1811 348.128 24.3276C348.19 24.4746 348.262 24.6103 348.344 24.7362C348.508 24.9671 348.719 25.1293 348.977 25.2239C349.233 25.3183 349.64 25.3864 350.195 25.4281V25.8054H340.199ZM347.866 6.63862C347.691 7.04768 347.454 7.39884 347.156 7.69246C346.858 7.98609 346.508 8.222 346.107 8.3998C345.706 8.5778 345.279 8.6669 344.827 8.6669C344.374 8.6669 343.952 8.5778 343.562 8.3998C343.171 8.222 342.826 7.98609 342.528 7.69246C342.23 7.39884 341.993 7.04768 341.818 6.63862C341.644 6.23013 341.556 5.79512 341.556 5.33376C341.556 4.87298 341.644 4.44261 341.818 4.04439C341.993 3.64617 342.224 3.29502 342.513 2.99113C342.801 2.68723 343.145 2.4459 343.546 2.26791C343.948 2.08971 344.374 2.00062 344.827 2.00062C345.279 2.00062 345.706 2.08971 346.107 2.26791C346.508 2.4459 346.858 2.682 347.156 2.97524C347.454 3.26926 347.691 3.61983 347.866 4.02831C348.04 4.43757 348.128 4.87298 348.128 5.33376C348.128 5.79512 348.04 6.23013 347.866 6.63862Z" fill="#201D1C"></path>
<path d="M369.88 25.8054V25.4281C370.456 25.3653 370.841 25.1871 371.037 24.8935C371.233 24.6001 371.33 24.0128 371.33 23.1326V15.1764C371.33 14.4431 371.304 13.887 371.253 13.51C371.201 13.1325 371.102 12.8286 370.957 12.5977C370.833 12.3884 370.641 12.2206 370.382 12.0949C370.123 11.969 369.858 11.9059 369.589 11.9059C369.236 11.9059 368.884 11.9954 368.532 12.1736C368.179 12.3516 367.775 12.6504 367.319 13.0694V23.1326C367.319 23.5726 367.339 23.9342 367.381 24.2174C367.422 24.5005 367.494 24.7264 367.597 24.8935C367.7 25.0615 367.844 25.1871 368.029 25.271C368.214 25.3549 368.461 25.4071 368.77 25.4281V25.8054H360.47V25.4281C360.757 25.4071 360.994 25.3549 361.179 25.271C361.365 25.1871 361.508 25.0615 361.611 24.8935C361.714 24.7264 361.786 24.5005 361.827 24.2174C361.868 23.9342 361.889 23.5726 361.889 23.1326V15.1764C361.889 14.4638 361.863 13.9341 361.812 13.5887C361.76 13.2423 361.652 12.9337 361.488 12.6608C361.365 12.4304 361.174 12.2518 360.917 12.1265C360.66 12.0006 360.377 11.9375 360.069 11.9375C359.718 11.9375 359.374 12.0213 359.035 12.1891C358.695 12.3574 358.31 12.6504 357.878 13.0694V23.1326C357.878 23.5726 357.898 23.9342 357.94 24.2174C357.98 24.5005 358.053 24.7264 358.156 24.8935C358.258 25.0615 358.407 25.1871 358.603 25.271C358.798 25.3549 359.04 25.4071 359.328 25.4281V25.8054H349.948V25.4281C350.545 25.387 350.987 25.319 351.275 25.2249C351.563 25.1305 351.8 24.969 351.985 24.7389C352.17 24.509 352.288 24.196 352.34 23.7994C352.391 23.4025 352.417 22.7139 352.417 21.7323V16.5953C352.417 16.1358 352.406 15.7343 352.386 15.3899C352.365 15.0453 352.334 14.7475 352.293 14.4968C352.252 14.2466 352.195 14.027 352.124 13.839C352.051 13.6514 351.954 13.4732 351.83 13.3064C351.604 13.0147 351.342 12.8003 351.043 12.6646C350.745 12.5288 350.329 12.4403 349.794 12.3983L349.763 12.0851C349.99 12.0434 350.19 12.002 350.365 11.9601C350.539 11.9181 350.678 11.8767 350.781 11.8342C351.275 11.7099 351.748 11.5896 352.201 11.4748C352.653 11.3597 353.106 11.2344 353.558 11.0986C354.011 10.9634 354.484 10.8168 354.978 10.6599C355.471 10.5038 356.016 10.321 356.613 10.1118L357.878 9.67348V12.6608C358.063 12.4719 358.227 12.3045 358.372 12.1575C358.515 12.0109 358.659 11.8799 358.803 11.7645C358.947 11.6495 359.097 11.534 359.251 11.4186C359.405 11.3037 359.595 11.1726 359.822 11.0256C360.542 10.5435 361.204 10.1976 361.809 9.98783C362.415 9.77865 363.044 9.67348 363.699 9.67348C365.744 9.67348 366.951 10.6694 367.319 12.6608C367.546 12.4515 367.741 12.2677 367.906 12.1104C368.07 11.9535 368.224 11.8116 368.368 11.6859C368.512 11.56 368.651 11.4449 368.785 11.34C368.918 11.2354 369.067 11.1308 369.232 11.0256C369.89 10.5646 370.548 10.2235 371.207 10.0035C371.865 9.7833 372.523 9.67348 373.181 9.67348C375.546 9.67348 376.73 11.1561 376.73 14.1212V22.3587L376.761 23.142C376.781 23.6014 376.796 23.9299 376.807 24.1283C376.817 24.3272 376.873 24.509 376.977 24.6764C377.1 24.9063 377.28 25.0783 377.517 25.1933C377.753 25.3084 378.108 25.387 378.581 25.4281V25.8054H369.88Z" fill="#201D1C"></path>
<path d="M396.212 20.7268C395.83 21.8276 395.31 22.7865 394.65 23.6043C393.989 24.4218 393.215 25.0614 392.328 25.5222C391.441 25.9832 390.482 26.2146 389.451 26.2146C388.852 26.2146 388.331 26.1302 387.888 25.9628C387.444 25.7951 386.954 25.5021 386.418 25.0821V27.9548C386.418 28.4317 386.423 28.83 386.433 29.1522C386.444 29.4728 386.469 29.7474 386.51 29.9756C386.551 30.2038 386.603 30.3899 386.665 30.5349C386.727 30.6801 386.808 30.8148 386.911 30.9388C387.097 31.1669 387.344 31.3272 387.652 31.4209C387.961 31.5137 388.444 31.5811 389.102 31.6231V32H378.118V31.6231C378.817 31.56 379.322 31.4718 379.63 31.3568C379.938 31.2419 380.206 31.0378 380.432 30.7451C380.638 30.5152 380.772 30.2018 380.833 29.8045C380.874 29.6373 380.905 29.4695 380.926 29.3032C380.946 29.1354 380.962 28.9369 380.972 28.707C380.982 28.477 380.987 28.1838 380.987 27.8286V16.6033C380.987 16.1434 380.977 15.7409 380.956 15.396C380.936 15.0511 380.905 14.7532 380.864 14.5025C380.822 14.2518 380.766 14.0322 380.694 13.8441C380.622 13.6557 380.525 13.478 380.401 13.3107C380.175 13.018 379.912 12.8036 379.615 12.6683C379.316 12.5326 378.899 12.4435 378.365 12.4011L378.334 12.0877C378.725 12.0043 379.069 11.9262 379.368 11.8532C379.666 11.7796 379.959 11.701 380.247 11.6175C380.535 11.534 380.848 11.4451 381.186 11.3508C381.524 11.257 381.939 11.1373 382.43 10.9907C382.92 10.8441 383.329 10.7244 383.656 10.6303C383.984 10.5355 384.286 10.4418 384.562 10.3475C384.838 10.2537 385.119 10.1542 385.405 10.0496C385.692 9.94538 386.029 9.81968 386.418 9.67364V11.7174C387.263 10.9837 388.053 10.4596 388.785 10.1449C389.517 9.83053 390.276 9.67364 391.06 9.67364C391.906 9.67364 392.679 9.85726 393.38 10.2235C394.082 10.5906 394.685 11.1042 395.191 11.7645C395.696 12.4248 396.088 13.2113 396.367 14.1231C396.645 15.035 396.785 16.0468 396.785 17.1575C396.785 18.4365 396.594 19.6264 396.212 20.7268ZM390.269 13.2424C389.772 12.0374 389.089 11.4342 388.219 11.4342C387.971 11.4342 387.723 11.4869 387.474 11.5915C387.225 11.6967 386.873 11.8954 386.418 12.189V24.5787C386.873 25.0407 387.381 25.2712 387.94 25.2712C388.913 25.2712 389.669 24.6527 390.208 23.4159C390.746 22.1788 391.015 20.4492 391.015 18.2268C391.015 16.1094 390.766 14.4483 390.269 13.2424Z" fill="#201D1C"></path>
<path d="M396.414 25.8054V25.4281C396.949 25.3864 397.345 25.3186 397.602 25.2239C397.859 25.1302 398.08 24.9681 398.266 24.738C398.409 24.5294 398.513 24.2211 398.574 23.813C398.636 23.4055 398.667 22.7099 398.667 21.7273V8.83753C398.667 7.8968 398.625 7.20186 398.543 6.75231C398.461 6.30277 398.296 5.91055 398.05 5.57606C397.823 5.26267 397.561 5.03781 397.263 4.90203C396.965 4.76645 396.558 4.68762 396.044 4.66651L395.983 4.32155C396.394 4.23808 396.748 4.16564 397.047 4.1023C397.345 4.03974 397.638 3.97195 397.926 3.89835C398.214 3.82533 398.527 3.74669 398.866 3.66322C399.203 3.57974 399.607 3.47515 400.078 3.34945C400.568 3.22394 400.978 3.11412 401.305 3.01999C401.632 2.92605 401.934 2.8323 402.21 2.73817C402.486 2.64346 402.768 2.54972 403.054 2.45539C403.34 2.36165 403.688 2.25222 404.097 2.12632V21.7273C404.097 22.2085 404.102 22.616 404.113 22.9507C404.123 23.2852 404.144 23.5623 404.174 23.7814C404.205 24.001 404.246 24.1838 404.298 24.3305C404.349 24.4771 404.416 24.6133 404.498 24.738C404.663 24.9681 404.873 25.1302 405.131 25.2239C405.388 25.3186 405.794 25.3864 406.349 25.4281V25.8054H396.414Z" fill="#201D1C"></path>
<path d="M421.506 20.947C421.361 21.2929 421.219 21.6026 421.075 21.8748C420.93 22.1472 420.77 22.4093 420.596 22.6609C420.421 22.9124 420.221 23.1849 419.995 23.4786C419.275 24.3589 418.41 25.035 417.403 25.5069C416.396 25.9785 415.284 26.2142 414.072 26.2142C412.918 26.2142 411.844 26.0097 410.847 25.601C409.849 25.1919 408.984 24.626 408.255 23.9026C407.525 23.1797 406.953 22.3258 406.542 21.34C406.13 20.3551 405.925 19.2858 405.925 18.1322C405.925 16.9588 406.141 15.8579 406.573 14.8306C407.006 13.8037 407.601 12.9074 408.363 12.142C409.123 11.3767 410.012 10.774 411.031 10.3339C412.05 9.89328 413.144 9.67364 414.317 9.67364C415.347 9.67364 416.291 9.83052 417.156 10.1449C418.021 10.4596 418.781 10.9107 419.44 11.497C420.098 12.0846 420.637 12.7971 421.059 13.6355C421.481 14.4743 421.753 15.4074 421.876 16.4342H411.664C411.685 20.3551 413.403 22.315 416.818 22.315C418.114 22.315 419.212 21.9903 420.119 21.34C420.468 21.1096 420.746 20.8739 420.951 20.6322C421.156 20.3919 421.415 20.0299 421.723 19.5478L422 19.6732C421.816 20.1765 421.65 20.6011 421.506 20.947ZM416.415 15.135C416.415 14.881 416.411 14.6538 416.4 14.4521C416.39 14.2509 416.379 14.0652 416.369 13.896C416.36 13.7269 416.343 13.5365 416.324 13.324C416.24 12.1803 416.035 11.3484 415.706 10.8292C415.377 10.3109 414.904 10.0506 414.286 10.0506C413.424 10.0506 412.77 10.5648 412.327 11.5921C411.884 12.62 411.664 14.1087 411.664 16.0568H416.415V15.135Z" fill="#201D1C"></path>
</g>
<path d="M198.449 24.125V11H200.676V24.125H198.449ZM193 18.6761V16.4489H206.125V18.6761H193Z" fill="black"></path>
<defs>
<clipPath id="clip0_14595_1062">
<rect width="206" height="30" fill="white" transform="translate(216 2)"></rect>
</clipPath>
</defs>
</svg>
