<svg width="878" height="144" viewBox="0 0 878 144" fill="none" xmlns="http://www.w3.org/2000/svg">
<path d="M329.573 130.918C314.791 130.918 302.523 125.992 292.78 116.153C283.038 106.313 278.154 94.0888 278.154 79.4787C278.154 64.8687 283.025 52.644 292.78 42.8046C302.523 32.9523 314.791 28.0391 329.573 28.0391C338.421 28.0391 346.621 30.0873 354.148 34.1838C361.675 38.2803 367.609 43.8677 371.948 50.9328L352.451 62.2371C350.288 58.374 347.179 55.3794 343.124 53.2663C339.082 51.1403 334.56 50.0902 329.56 50.0902C320.802 50.0902 313.806 52.7737 308.586 58.1406C303.365 63.5076 300.748 70.6246 300.748 79.4787C300.748 88.3329 303.365 95.4499 308.586 100.817C313.806 106.184 320.802 108.88 329.56 108.88C334.547 108.88 339.095 107.791 343.188 105.626C347.282 103.461 350.365 100.493 352.438 96.7204L371.936 108.025C367.699 115.09 361.818 120.677 354.278 124.774C346.764 128.87 338.525 130.918 329.573 130.918Z" fill="black"></path>
<path d="M404.435 25.7656H383.254V128.943H404.435V25.7656Z" fill="black"></path>
<path d="M480.412 120.104C473.157 127.312 464.309 130.916 453.854 130.916C443.399 130.916 434.551 127.312 427.296 120.104C420.041 112.896 416.414 104.068 416.414 93.6062C416.414 83.1445 420.041 74.3163 427.296 67.1085C434.551 59.9008 443.399 56.2969 453.854 56.2969C464.309 56.2969 473.157 59.9008 480.412 67.1085C487.654 74.3163 491.281 83.1445 491.281 93.6062C491.281 104.068 487.654 112.896 480.412 120.104ZM442.272 105.623C445.381 108.735 449.242 110.29 453.854 110.29C458.466 110.29 462.327 108.735 465.436 105.623C468.545 102.512 470.1 98.5064 470.1 93.6062C470.1 88.7059 468.545 84.7002 465.436 81.6019C462.327 78.4906 458.466 76.935 453.854 76.935C449.242 76.935 445.381 78.4906 442.272 81.6019C439.163 84.7131 437.608 88.7189 437.608 93.6062C437.608 98.5064 439.163 102.512 442.272 105.623Z" fill="black"></path>
<path d="M548.908 58.2812H570.089V128.946H548.908V122.309C544.671 128.051 537.935 130.929 528.711 130.929C521.171 130.929 514.888 128.337 509.861 123.164C504.822 117.979 502.309 110.823 502.309 101.683V58.2812H523.49V98.5592C523.49 102.708 524.643 105.884 526.949 108.1C529.255 110.317 532.196 111.419 535.771 111.419C539.813 111.419 543.026 110.188 545.371 107.75C547.729 105.3 548.908 101.671 548.908 96.861V58.2812V58.2812Z" fill="black"></path>
<path d="M634.088 30.0078H655.269V128.946H634.088V122.309C629.1 128.052 622.078 130.93 613.049 130.93C603.721 130.93 595.767 127.326 589.185 120.118C582.591 112.91 579.301 104.082 579.301 93.6203C579.301 83.1587 582.591 74.3305 589.185 67.1227C595.78 59.9149 603.734 56.311 613.049 56.311C622.091 56.311 629.1 59.1889 634.088 64.9318V30.0078V30.0078ZM605.133 106.195C608.242 109.306 612.284 110.862 617.285 110.862C622.273 110.862 626.327 109.306 629.437 106.195C632.546 103.084 634.1 98.8965 634.1 93.6203C634.1 88.3441 632.546 84.1569 629.437 81.0456C626.327 77.9343 622.273 76.3787 617.285 76.3787C612.297 76.3787 608.242 77.9343 605.133 81.0456C602.024 84.1569 600.469 88.3441 600.469 93.6203C600.482 98.8836 602.037 103.084 605.133 106.195Z" fill="black"></path>
<path d="M736.901 30.0078V42.4529H707.675V128.946H694.668V42.4529H665.584V30.0078H736.901Z" fill="black"></path>
<path d="M783.081 58.2862H795.375V128.951H783.081V116.791C776.966 126.112 768.066 130.779 756.393 130.779C746.509 130.779 738.075 127.175 731.105 119.967C724.135 112.759 720.65 103.97 720.65 93.612C720.65 83.2541 724.135 74.4648 731.105 67.257C738.075 60.0492 746.496 56.4453 756.393 56.4453C768.066 56.4453 776.966 61.1122 783.081 70.4331V58.2862ZM757.948 118.917C765.099 118.917 771.084 116.493 775.878 111.644C780.684 106.796 783.081 100.781 783.081 93.625C783.081 86.4691 780.684 80.454 775.878 75.6056C771.071 70.7572 765.099 68.32 757.948 68.32C750.887 68.32 744.954 70.7442 740.148 75.6056C735.341 80.454 732.945 86.4691 732.945 93.625C732.945 100.781 735.341 106.796 740.148 111.644C744.941 116.493 750.874 118.917 757.948 118.917Z" fill="black"></path>
<path d="M875.323 128.946H860.917L841.083 102.254L821.236 128.946H806.83L833.88 92.57L808.385 58.2812H822.933L841.122 82.8214L859.376 58.2812H873.768L848.312 92.5182L875.323 128.946Z" fill="black"></path>
<path fill-rule="evenodd" clip-rule="evenodd" d="M91.3114 0C68.7217 0 49.1994 15.1394 43.0862 36.2571C18.3597 41.5138 0 63.6071 0 89.5239C0 119.54 24.3718 144 54.4122 144H183.511C207.632 144 227.185 124.354 227.185 100.281C227.185 77.6355 209.914 58.9266 187.8 56.7551C182.164 37.4611 164.514 23.7937 143.634 23.7937C140.558 23.7937 137.517 24.0958 134.537 24.6964C125.625 9.63559 109.259 0 91.3114 0ZM99.5453 59.1264C91.5461 47.2747 78.9961 38.6987 64.3968 35.9765C69.5633 26.244 79.805 19.7319 91.3114 19.7319C104.116 19.7319 115.658 27.8457 120 39.956L123.554 49.8782L133.236 45.6852C136.533 44.2549 140.038 43.5256 143.658 43.5256C157.365 43.5256 168.612 53.8037 169.829 67.5096L170.722 77.573L180.757 76.4484L180.766 76.4474C181.77 76.3395 182.695 76.2813 183.523 76.2813C196.677 76.2813 207.449 87.0268 207.449 100.281C207.437 113.534 196.666 124.268 183.511 124.268H54.4122C35.3385 124.268 19.7604 108.708 19.7604 89.5239C19.7604 71.3191 33.956 56.1253 51.988 54.8776L53.3754 54.7797H54.4122C66.2063 54.7797 76.6639 60.7246 82.9459 69.8372L85.4714 73.5006L102.24 63.1192L99.5453 59.1264Z" fill="black"></path>
</svg>
