<svg width="692" height="173" viewBox="0 0 692 173" fill="none" xmlns="http://www.w3.org/2000/svg">
<path d="M336.448 38.7844H369.067L385.371 92.4196H385.717L400.416 38.7896H428.526L442.796 92.7656H443.142L458.901 38.7844H491.519L462.104 134.595H427.918L414.178 86.1182H413.79L400.028 134.595H366.535L336.448 38.7844ZM533.286 51.0202H533.794C541.338 40.4829 551.063 34.711 564.232 34.711C586.124 34.711 597.374 49.589 597.374 71.8903V134.595H562.255V80.6556C562.255 70.6268 558.177 64.1053 549.086 64.1053C539.991 64.1053 534.816 71.9951 534.816 82.4537V134.595H499.53V37.7673H532.919V51.0202H533.286ZM647.728 53.201H648.341C657.84 39.4606 666.097 36.2365 681.405 36.8918C683.402 36.7398 685.4 37.0858 687.235 37.8879V68.0004H686.359C662.223 63.062 649.442 73.809 649.442 95.4183V134.595H613.683V38.7844H647.445V53.2587H647.665L647.728 53.201ZM284.527 34.711C274.243 34.6952 264.185 37.7321 255.628 43.4371C247.071 49.142 240.4 57.2584 236.46 66.7579C232.518 76.2559 231.478 86.7087 233.471 96.797C235.477 106.882 240.426 116.147 247.694 123.422C254.961 130.697 264.221 135.656 274.305 137.672C284.389 139.682 294.843 138.655 304.344 134.721C313.847 130.792 321.971 124.131 327.687 115.581C333.402 107.032 336.451 96.9787 336.448 86.6949C336.447 72.9192 330.978 59.7072 321.243 49.9605C311.508 40.2137 298.303 34.7291 284.527 34.711ZM284.527 108.729C281.272 108.718 278.059 107.988 275.119 106.589C272.179 105.19 269.586 103.158 267.524 100.638C265.462 98.1188 263.984 95.1741 263.195 92.0156C262.406 88.8571 262.326 85.563 262.96 82.3699C263.812 78.0958 265.913 74.1707 268.997 71.0918C272.082 68.013 276.011 65.919 280.286 65.0751C284.559 64.2297 288.986 64.6674 293.01 66.3333C296.357 67.7252 299.311 69.9204 301.609 72.7249C303.906 75.5293 305.478 78.8567 306.184 82.4128C306.891 85.969 306.71 89.6443 305.658 93.1141C304.607 96.5839 302.717 99.7411 300.155 102.307C298.1 104.351 295.661 105.971 292.98 107.072C290.299 108.174 287.426 108.737 284.527 108.729Z" fill="#231E56"/>
<path d="M30.2641 151.162C16.4401 143.164 6.33059 130.034 2.13224 114.624C-2.06612 99.2151 -0.0141556 82.7715 7.84229 68.8665C11.7623 62.0251 17.0036 56.0316 23.2613 51.2346C29.519 46.4376 36.6682 42.9329 44.2929 40.9243C51.9159 38.9097 59.8633 38.4302 67.6733 39.5138C75.4833 40.5973 83 43.2223 89.7866 47.2362L30.2641 151.162Z" fill="#5F3DC8"/>
<path d="M67.3658 8.21722C74.1455 4.23071 81.6477 1.62659 89.4393 0.55518C97.2308 -0.516227 105.157 -0.0336936 112.762 1.97492C120.366 3.98354 127.497 7.47845 133.743 12.2579C139.989 17.0374 145.226 23.0067 149.153 29.8212C157.032 43.7153 159.114 60.1566 154.946 75.5759C150.777 90.9953 140.695 104.148 126.888 112.18L67.3658 8.21722ZM172.838 112.18C172.629 127.991 166.202 143.084 154.947 154.192C143.692 165.299 128.515 171.527 112.702 171.527C96.8894 171.527 81.7127 165.299 70.4578 154.192C59.2028 143.084 52.7752 127.991 52.5664 112.18H172.838Z" fill="#5F3DC8"/>
</svg>
